<?xml version="1.0"?>
<svg version="1.1" xmlns="http://www.w3.org/2000/svg" width="68px" height="200px" style="border: dashed 2px #aaa"><path fill="#" d="M64.751953125,116.7890625l-1.44921875-4.7578125l-7.287109375,0l-1.44921875,4.7578125l-4.56640625,0l7.0546875-20.0703125l5.181640625,0l7.08203125,20.0703125l-4.56640625,0z M62.291015625,108.4765625q-2.009765625-6.466796875-2.2626953125-7.314453125t-0.3623046875-1.33984375q-0.451171875,1.75-2.583984375,8.654296875l5.208984375,0z M81.87966796875,104.634765625l-3.609375,0l0,12.154296875l-4.169921875,0l0-12.154296875l-2.296875,0l0-2.009765625l2.296875-1.12109375l0-1.12109375q0-2.611328125,1.28515625-3.814453125t4.115234375-1.203125q2.16015625,0,3.841796875,0.642578125l-1.06640625,3.0625q-1.2578125-0.396484375-2.32421875-0.396484375q-0.888671875,0-1.28515625,0.5263671875t-0.396484375,1.3466796875l0,0.95703125l3.609375,0l0,3.130859375z M86.0191015625,97.552734375q0-2.037109375,2.26953125-2.037109375t2.26953125,2.037109375q0,0.970703125-0.5673828125,1.5107421875t-1.7021484375,0.5400390625q-2.26953125,0-2.26953125-2.05078125z M90.3667578125,116.7890625l-4.169921875,0l0-15.28515625l4.169921875,0l0,15.28515625z M107.33041015625,112.25q0,2.3515625-1.6337890625,3.58203125t-4.8876953125,1.23046875q-1.66796875,0-2.84375-0.2255859375t-2.201171875-0.6630859375l0-3.4453125q1.162109375,0.546875,2.6181640625,0.916015625t2.5634765625,0.369140625q2.26953125,0,2.26953125-1.3125q0-0.4921875-0.30078125-0.7998046875t-1.0390625-0.697265625t-1.96875-0.9091796875q-1.763671875-0.73828125-2.5908203125-1.3671875t-1.203125-1.4423828125t-0.3759765625-2.0029296875q0-2.037109375,1.5791015625-3.1513671875t4.4775390625-1.1142578125q2.76171875,0,5.373046875,1.203125l-1.2578125,3.0078125q-1.1484375-0.4921875-2.146484375-0.806640625t-2.037109375-0.314453125q-1.845703125,0-1.845703125,0.998046875q0,0.560546875,0.5947265625,0.970703125t2.6044921875,1.216796875q1.791015625,0.724609375,2.625,1.353515625t1.23046875,1.44921875t0.396484375,1.955078125z M126.61828125,116.7890625l-4.169921875,0l0-8.927734375q0-3.30859375-2.4609375-3.30859375q-1.75,0-2.529296875,1.189453125t-0.779296875,3.85546875l0,7.19140625l-4.169921875,0l0-21.2734375l4.169921875,0l0,4.333984375q0,0.505859375-0.095703125,2.37890625l-0.095703125,1.23046875l0.21875,0q1.39453125-2.2421875,4.4296875-2.2421875q2.693359375,0,4.087890625,1.44921875t1.39453125,4.15625l0,9.966796875z M142.54287109375,116.7890625l-0.806640625-2.078125l-0.109375,0q-1.052734375,1.326171875-2.1669921875,1.8388671875t-2.9052734375,0.5126953125q-2.201171875,0-3.4658203125-1.2578125t-1.2646484375-3.58203125q0-2.43359375,1.7021484375-3.5888671875t5.1337890625-1.2783203125l2.65234375-0.08203125l0-0.669921875q0-2.32421875-2.37890625-2.32421875q-1.83203125,0-4.306640625,1.107421875l-1.380859375-2.81640625q2.638671875-1.380859375,5.8515625-1.380859375q3.076171875,0,4.716796875,1.33984375t1.640625,4.07421875l0,10.185546875l-2.912109375,0z M141.31240234375,109.70703125l-1.61328125,0.0546875q-1.818359375,0.0546875-2.70703125,0.65625t-0.888671875,1.83203125q0,1.763671875,2.0234375,1.763671875q1.44921875,0,2.3173828125-0.833984375t0.8681640625-2.21484375l0-1.2578125z"/><path fill="#" d=""/></svg>
